<svg width="32" height="32" viewBox="0 0 32 32" fill="none" xmlns="http://www.w3.org/2000/svg">
<path d="M16.0002 16.6666C14.7625 16.6666 13.5755 17.1583 12.7003 18.0335C11.8252 18.9086 11.3335 20.0956 11.3335 21.3333C11.3335 22.571 11.8252 23.758 12.7003 24.6331C13.5755 25.5083 14.7625 26 16.0002 26C17.2378 26 18.4248 25.5083 19.3 24.6331C20.1752 23.758 20.6668 22.571 20.6668 21.3333C20.6668 20.0956 20.1752 18.9086 19.3 18.0335C18.4248 17.1583 17.2378 16.6666 16.0002 16.6666ZM14.0002 21.3333C14.0002 20.8029 14.2109 20.2942 14.5859 19.9191C14.961 19.544 15.4697 19.3333 16.0002 19.3333C16.5306 19.3333 17.0393 19.544 17.4144 19.9191C17.7894 20.2942 18.0002 20.8029 18.0002 21.3333C18.0002 21.8637 17.7894 22.3724 17.4144 22.7475C17.0393 23.1226 16.5306 23.3333 16.0002 23.3333C15.4697 23.3333 14.961 23.1226 14.5859 22.7475C14.2109 22.3724 14.0002 21.8637 14.0002 21.3333Z" fill="#08CAC1"/>
<path d="M23.368 6.82133L19.1293 0.878662L3.544 13.3293L2.68 13.32V13.3333H2V29.3333H30V13.3333H28.7173L26.1653 5.868L23.368 6.82133ZM25.9 13.3333H12.5293L22.488 9.93866L24.5173 9.28933L25.9 13.3333ZM20.7333 7.72L10.4533 11.224L18.5947 4.72L20.7333 7.72ZM4.66667 24.2253V18.4387C5.22919 18.2393 5.74014 17.917 6.16226 17.4951C6.58438 17.0732 6.90702 16.5624 7.10667 16H24.8933C25.0929 16.5626 25.4155 17.0736 25.8376 17.4957C26.2597 17.9178 26.7707 18.2404 27.3333 18.44V24.2267C26.7707 24.4262 26.2597 24.7488 25.8376 25.1709C25.4155 25.5931 25.0929 26.104 24.8933 26.6667H7.10933C6.90958 26.1036 6.58662 25.5922 6.16403 25.1698C5.74143 24.7475 5.22987 24.4248 4.66667 24.2253Z" fill="#08CAC1"/>
</svg>
